<svg id="asvg1SVG" width="450" height="250"><text id="asvg1SVG-xAxisVbl" x="440.00" y="191.00" style="font-size:12px" class="intmathItalic" font-weight="normal" text-anchor="middle">x</text><path d="M 450 197 L 446 209 L 453 209 Z" transform="rotate(90 450 197)" stroke="black" fill="#333" id="asvg1SVG-xAxisArr"></path><text id="asvg1SVG-yAxisVbl" x="27.12" y="14.00" style="font-size:12px" class="intmathItalic" font-weight="normal" text-anchor="start">y</text><path d="M 21 0 L 18 12 L 25 12 Z" transform="rotate(0 21 0)" stroke="black" fill="#333" id="asvg1SVG-yAxisArr"></path><path d=" M29.36,0 29.36,250.00 M37.59,0 37.59,250.00 M45.83,0 45.83,250.00 M54.07,0 54.07,250.00 M62.31,0 62.31,250.00 M70.54,0 70.54,250.00 M78.78,0 78.78,250.00 M87.02,0 87.02,250.00 M95.26,0 95.26,250.00 M103.50,0 103.50,250.00 M111.73,0 111.73,250.00 M119.97,0 119.97,250.00 M128.21,0 128.21,250.00 M136.45,0 136.45,250.00 M144.68,0 144.68,250.00 M152.92,0 152.92,250.00 M161.16,0 161.16,250.00 M169.40,0 169.40,250.00 M177.63,0 177.63,250.00 M185.87,0 185.87,250.00 M194.11,0 194.11,250.00 M202.35,0 202.35,250.00 M210.58,0 210.58,250.00 M218.82,0 218.82,250.00 M227.06,0 227.06,250.00 M235.30,0 235.30,250.00 M243.53,0 243.53,250.00 M251.77,0 251.77,250.00 M260.01,0 260.01,250.00 M268.25,0 268.25,250.00 M276.49,0 276.49,250.00 M284.72,0 284.72,250.00 M292.96,0 292.96,250.00 M301.20,0 301.20,250.00 M309.44,0 309.44,250.00 M317.67,0 317.67,250.00 M325.91,0 325.91,250.00 M334.15,0 334.15,250.00 M342.39,0 342.39,250.00 M350.62,0 350.62,250.00 M358.86,0 358.86,250.00 M367.10,0 367.10,250.00 M375.34,0 375.34,250.00 M383.57,0 383.57,250.00 M391.81,0 391.81,250.00 M400.05,0 400.05,250.00 M408.29,0 408.29,250.00 M416.52,0 416.52,250.00 M424.76,0 424.76,250.00 M433.00,0 433.00,250.00 M441.24,0 441.24,250.00 M449.48,0 449.48,250.00 M12.88,0 12.88,250.00 M4.64,0 4.64,250.00 M0,179.00 450,179.00 M0,161.00 450,161.00 M0,143.00 450,143.00 M0,125.00 450,125.00 M0,107.00 450,107.00 M0,89.00 450,89.00 M0,71.00 450,71.00 M0,53.00 450,53.00 M0,35.00 450,35.00 M0,17.00 450,17.00 M0,215.00 450,215.00 M0,233.00 450,233.00" stroke-width="1" shape-rendering="crispEdges" stroke="#ddd" fill="none" id="asvg1SVG-grids"></path><path d="M0,197.00 450.00,197.00 M21.12,0 21.12,250.00 M29.36,200.00 29.36,194.00 M37.59,200.00 37.59,194.00 M45.83,200.00 45.83,194.00 M54.07,200.00 54.07,194.00 M62.31,200.00 62.31,194.00 M70.54,200.00 70.54,194.00 M78.78,200.00 78.78,194.00 M87.02,200.00 87.02,194.00 M95.26,200.00 95.26,194.00 M103.50,200.00 103.50,194.00 M111.73,200.00 111.73,194.00 M119.97,200.00 119.97,194.00 M128.21,200.00 128.21,194.00 M136.45,200.00 136.45,194.00 M144.68,200.00 144.68,194.00 M152.92,200.00 152.92,194.00 M161.16,200.00 161.16,194.00 M169.40,200.00 169.40,194.00 M177.63,200.00 177.63,194.00 M185.87,200.00 185.87,194.00 M194.11,200.00 194.11,194.00 M202.35,200.00 202.35,194.00 M210.58,200.00 210.58,194.00 M218.82,200.00 218.82,194.00 M227.06,200.00 227.06,194.00 M235.30,200.00 235.30,194.00 M243.53,200.00 243.53,194.00 M251.77,200.00 251.77,194.00 M260.01,200.00 260.01,194.00 M268.25,200.00 268.25,194.00 M276.49,200.00 276.49,194.00 M284.72,200.00 284.72,194.00 M292.96,200.00 292.96,194.00 M301.20,200.00 301.20,194.00 M309.44,200.00 309.44,194.00 M317.67,200.00 317.67,194.00 M325.91,200.00 325.91,194.00 M334.15,200.00 334.15,194.00 M342.39,200.00 342.39,194.00 M350.62,200.00 350.62,194.00 M358.86,200.00 358.86,194.00 M367.10,200.00 367.10,194.00 M375.34,200.00 375.34,194.00 M383.57,200.00 383.57,194.00 M391.81,200.00 391.81,194.00 M400.05,200.00 400.05,194.00 M408.29,200.00 408.29,194.00 M416.52,200.00 416.52,194.00 M424.76,200.00 424.76,194.00 M433.00,200.00 433.00,194.00 M441.24,200.00 441.24,194.00 M449.48,200.00 449.48,194.00 M12.88,200.00 12.88,194.00 M4.64,200.00 4.64,194.00 M24.12,179.00 18.12,179.00 M24.12,161.00 18.12,161.00 M24.12,143.00 18.12,143.00 M24.12,125.00 18.12,125.00 M24.12,107.00 18.12,107.00 M24.12,89.00 18.12,89.00 M24.12,71.00 18.12,71.00 M24.12,53.00 18.12,53.00 M24.12,35.00 18.12,35.00 M24.12,17.00 18.12,17.00 M24.12,215.00 18.12,215.00 M24.12,233.00 18.12,233.00" stroke-width="1" shape-rendering="crispEdges" stroke="#333" fill="none" id="asvg1SVG-AxTix"></path><text id="asvg1SVG-x-labels-0" x="29.36" y="213.00" style="font-size:12px" class="intmath" font-weight="normal" text-anchor="middle">2</text><text id="asvg1SVG-x-labels-1" x="37.59" y="213.00" style="font-size: 12px; visibility: hidden;" class="intmath" font-weight="normal" text-anchor="middle">4</text><text id="asvg1SVG-x-labels-2" x="45.83" y="213.00" style="font-size:12px" class="intmath" font-weight="normal" text-anchor="middle">6</text><text id="asvg1SVG-x-labels-3" x="54.07" y="213.00" style="font-size: 12px; visibility: hidden;" class="intmath" font-weight="normal" text-anchor="middle">8</text><text id="asvg1SVG-x-labels-4" x="62.31" y="213.00" style="font-size:12px" class="intmath" font-weight="normal" text-anchor="middle">10</text><text id="asvg1SVG-x-labels-5" x="70.54" y="213.00" style="font-size: 12px; visibility: hidden;" class="intmath" font-weight="normal" text-anchor="middle">12</text><text id="asvg1SVG-x-labels-6" x="78.78" y="213.00" style="font-size:12px" class="intmath" font-weight="normal" text-anchor="middle">14</text><text id="asvg1SVG-x-labels-7" x="87.02" y="213.00" style="font-size: 12px; visibility: hidden;" class="intmath" font-weight="normal" text-anchor="middle">16</text><text id="asvg1SVG-x-labels-8" x="95.26" y="213.00" style="font-size:12px" class="intmath" font-weight="normal" text-anchor="middle">18</text><text id="asvg1SVG-x-labels-9" x="103.50" y="213.00" style="font-size: 12px; visibility: hidden;" class="intmath" font-weight="normal" text-anchor="middle">20</text><text id="asvg1SVG-x-labels-10" x="111.73" y="213.00" style="font-size:12px" class="intmath" font-weight="normal" text-anchor="middle">22</text><text id="asvg1SVG-x-labels-11" x="119.97" y="213.00" style="font-size: 12px; visibility: hidden;" class="intmath" font-weight="normal" text-anchor="middle">24</text><text id="asvg1SVG-x-labels-12" x="128.21" y="213.00" style="font-size:12px" class="intmath" font-weight="normal" text-anchor="middle">26</text><text id="asvg1SVG-x-labels-13" x="136.45" y="213.00" style="font-size: 12px; visibility: hidden;" class="intmath" font-weight="normal" text-anchor="middle">28</text><text id="asvg1SVG-x-labels-14" x="144.68" y="213.00" style="font-size:12px" class="intmath" font-weight="normal" text-anchor="middle">30</text><text id="asvg1SVG-x-labels-15" x="152.92" y="213.00" style="font-size: 12px; visibility: hidden;" class="intmath" font-weight="normal" text-anchor="middle">32</text><text id="asvg1SVG-x-labels-16" x="161.16" y="213.00" style="font-size:12px" class="intmath" font-weight="normal" text-anchor="middle">34</text><text id="asvg1SVG-x-labels-17" x="169.40" y="213.00" style="font-size: 12px; visibility: hidden;" class="intmath" font-weight="normal" text-anchor="middle">36</text><text id="asvg1SVG-x-labels-18" x="177.63" y="213.00" style="font-size:12px" class="intmath" font-weight="normal" text-anchor="middle">38</text><text id="asvg1SVG-x-labels-19" x="185.87" y="213.00" style="font-size: 12px; visibility: hidden;" class="intmath" font-weight="normal" text-anchor="middle">40</text><text id="asvg1SVG-x-labels-20" x="194.11" y="213.00" style="font-size:12px" class="intmath" font-weight="normal" text-anchor="middle">42</text><text id="asvg1SVG-x-labels-21" x="202.35" y="213.00" style="font-size: 12px; visibility: hidden;" class="intmath" font-weight="normal" text-anchor="middle">44</text><text id="asvg1SVG-x-labels-22" x="210.58" y="213.00" style="font-size:12px" class="intmath" font-weight="normal" text-anchor="middle">46</text><text id="asvg1SVG-x-labels-23" x="218.82" y="213.00" style="font-size: 12px; visibility: hidden;" class="intmath" font-weight="normal" text-anchor="middle">48</text><text id="asvg1SVG-x-labels-24" x="227.06" y="213.00" style="font-size:12px" class="intmath" font-weight="normal" text-anchor="middle">50</text><text id="asvg1SVG-x-labels-25" x="235.30" y="213.00" style="font-size: 12px; visibility: hidden;" class="intmath" font-weight="normal" text-anchor="middle">52</text><text id="asvg1SVG-x-labels-26" x="243.53" y="213.00" style="font-size:12px" class="intmath" font-weight="normal" text-anchor="middle">54</text><text id="asvg1SVG-x-labels-27" x="251.77" y="213.00" style="font-size: 12px; visibility: hidden;" class="intmath" font-weight="normal" text-anchor="middle">56</text><text id="asvg1SVG-x-labels-28" x="260.01" y="213.00" style="font-size:12px" class="intmath" font-weight="normal" text-anchor="middle">58</text><text id="asvg1SVG-x-labels-29" x="268.25" y="213.00" style="font-size: 12px; visibility: hidden;" class="intmath" font-weight="normal" text-anchor="middle">60</text><text id="asvg1SVG-x-labels-30" x="276.49" y="213.00" style="font-size:12px" class="intmath" font-weight="normal" text-anchor="middle">62</text><text id="asvg1SVG-x-labels-31" x="284.72" y="213.00" style="font-size: 12px; visibility: hidden;" class="intmath" font-weight="normal" text-anchor="middle">64</text><text id="asvg1SVG-x-labels-32" x="292.96" y="213.00" style="font-size:12px" class="intmath" font-weight="normal" text-anchor="middle">66</text><text id="asvg1SVG-x-labels-33" x="301.20" y="213.00" style="font-size: 12px; visibility: hidden;" class="intmath" font-weight="normal" text-anchor="middle">68</text><text id="asvg1SVG-x-labels-34" x="309.44" y="213.00" style="font-size:12px" class="intmath" font-weight="normal" text-anchor="middle">70</text><text id="asvg1SVG-x-labels-35" x="317.67" y="213.00" style="font-size: 12px; visibility: hidden;" class="intmath" font-weight="normal" text-anchor="middle">72</text><text id="asvg1SVG-x-labels-36" x="325.91" y="213.00" style="font-size:12px" class="intmath" font-weight="normal" text-anchor="middle">74</text><text id="asvg1SVG-x-labels-37" x="334.15" y="213.00" style="font-size: 12px; visibility: hidden;" class="intmath" font-weight="normal" text-anchor="middle">76</text><text id="asvg1SVG-x-labels-38" x="342.39" y="213.00" style="font-size:12px" class="intmath" font-weight="normal" text-anchor="middle">78</text><text id="asvg1SVG-x-labels-39" x="350.62" y="213.00" style="font-size: 12px; visibility: hidden;" class="intmath" font-weight="normal" text-anchor="middle">80</text><text id="asvg1SVG-x-labels-40" x="358.86" y="213.00" style="font-size:12px" class="intmath" font-weight="normal" text-anchor="middle">82</text><text id="asvg1SVG-x-labels-41" x="367.10" y="213.00" style="font-size: 12px; visibility: hidden;" class="intmath" font-weight="normal" text-anchor="middle">84</text><text id="asvg1SVG-x-labels-42" x="375.34" y="213.00" style="font-size:12px" class="intmath" font-weight="normal" text-anchor="middle">86</text><text id="asvg1SVG-x-labels-43" x="383.57" y="213.00" style="font-size: 12px; visibility: hidden;" class="intmath" font-weight="normal" text-anchor="middle">88</text><text id="asvg1SVG-x-labels-44" x="391.81" y="213.00" style="font-size:12px" class="intmath" font-weight="normal" text-anchor="middle">90</text><text id="asvg1SVG-x-labels-45" x="400.05" y="213.00" style="font-size: 12px; visibility: hidden;" class="intmath" font-weight="normal" text-anchor="middle">92</text><text id="asvg1SVG-x-labels-46" x="408.29" y="213.00" style="font-size:12px" class="intmath" font-weight="normal" text-anchor="middle">94</text><text id="asvg1SVG-x-labels-47" x="416.52" y="213.00" style="font-size: 12px; visibility: hidden;" class="intmath" font-weight="normal" text-anchor="middle">96</text><text id="asvg1SVG-x-labels-48" x="424.76" y="213.00" style="font-size:12px" class="intmath" font-weight="normal" text-anchor="middle">98</text><text id="asvg1SVG-x-labels-49" x="433.00" y="213.00" style="font-size: 12px; visibility: hidden;" class="intmath" font-weight="normal" text-anchor="middle">100</text><text id="asvg1SVG-x-labels-50" x="441.24" y="213.00" style="font-size: 12px; visibility: hidden;" class="intmath" font-weight="normal" text-anchor="middle">102</text><text id="asvg1SVG-x-labels-51" x="449.48" y="213.00" style="font-size:12px" class="intmath" font-weight="normal" text-anchor="middle">104</text><text id="asvg1SVG-x-labels-52" x="12.88" y="213.00" style="font-size: 12px; visibility: hidden;" class="intmath" font-weight="normal" text-anchor="middle">-2</text><text id="asvg1SVG-x-labels-53" x="4.64" y="213.00" style="font-size: 12px; visibility: hidden;" class="intmath" font-weight="normal" text-anchor="middle">-4</text><text id="asvg1SVG-y-labels-0" x="15.12" y="183.00" style="font-size:12px" class="intmath" font-weight="normal" text-anchor="end">1</text><text id="asvg1SVG-y-labels-1" x="15.12" y="165.00" style="font-size:12px" class="intmath" font-weight="normal" text-anchor="end">2</text><text id="asvg1SVG-y-labels-2" x="15.12" y="147.00" style="font-size:12px" class="intmath" font-weight="normal" text-anchor="end">3</text><text id="asvg1SVG-y-labels-3" x="15.12" y="129.00" style="font-size:12px" class="intmath" font-weight="normal" text-anchor="end">4</text><text id="asvg1SVG-y-labels-4" x="15.12" y="111.00" style="font-size:12px" class="intmath" font-weight="normal" text-anchor="end">5</text><text id="asvg1SVG-y-labels-5" x="15.12" y="93.00" style="font-size:12px" class="intmath" font-weight="normal" text-anchor="end">6</text><text id="asvg1SVG-y-labels-6" x="15.12" y="75.00" style="font-size:12px" class="intmath" font-weight="normal" text-anchor="end">7</text><text id="asvg1SVG-y-labels-7" x="15.12" y="57.00" style="font-size:12px" class="intmath" font-weight="normal" text-anchor="end">8</text><text id="asvg1SVG-y-labels-8" x="15.12" y="39.00" style="font-size:12px" class="intmath" font-weight="normal" text-anchor="end">9</text><text id="asvg1SVG-y-labels-9" x="15.12" y="21.00" style="font-size:12px" class="intmath" font-weight="normal" text-anchor="end">10</text><text id="asvg1SVG-y-labels-10" x="15.12" y="219.00" style="font-size:12px" class="intmath" font-weight="normal" text-anchor="end">-1</text><text id="asvg1SVG-y-labels-11" x="15.12" y="237.00" style="font-size:12px" class="intmath" font-weight="normal" text-anchor="end">-2</text><path id="asvg1SVG-plot-1037" stroke="#165a71" stroke-width="1.5" stroke-opacity="1" fill="none" fill-opacity="1" vector-effect="non-scaling-stroke" d="M21.12,179.00 21.95,179.00 22.78,179.00 23.61,179.00 24.45,179.00 25.28,161.00 26.11,161.00 26.94,161.00 27.77,161.00 28.61,161.00 29.44,161.00 30.27,161.00 31.10,161.00 31.93,161.00 32.77,161.00 33.60,161.00 34.43,161.00 35.26,161.00 36.09,161.00 36.93,161.00 37.76,143.00 38.59,143.00 39.42,143.00 40.25,143.00 41.09,143.00 41.92,143.00 42.75,143.00 43.58,143.00 44.41,143.00 45.25,143.00 46.08,143.00 46.91,143.00 47.74,143.00 48.57,143.00 49.41,143.00 50.24,143.00 51.07,143.00 51.90,143.00 52.73,143.00 53.57,143.00 54.40,143.00 55.23,143.00 56.06,143.00 56.89,143.00 57.73,143.00 58.56,125.00 59.39,125.00 60.22,125.00 61.05,125.00 61.89,125.00 62.72,125.00 63.55,125.00 64.38,125.00 65.21,125.00 66.05,125.00 66.88,125.00 67.71,125.00 68.54,125.00 69.37,125.00 70.21,125.00 71.04,125.00 71.87,125.00 72.70,125.00 73.53,125.00 74.37,125.00 75.20,125.00 76.03,125.00 76.86,125.00 77.69,125.00 78.53,125.00 79.36,125.00 80.19,125.00 81.02,125.00 81.85,125.00 82.69,125.00 83.52,125.00 84.35,125.00 85.18,125.00 86.01,125.00 86.85,125.00 87.68,107.00 88.51,107.00 89.34,107.00 90.17,107.00 91.01,107.00 91.84,107.00 92.67,107.00 93.50,107.00 94.33,107.00 95.17,107.00 96.00,107.00 96.83,107.00 97.66,107.00 98.49,107.00 99.33,107.00 100.16,107.00 100.99,107.00 101.82,107.00 102.65,107.00 103.49,107.00 104.32,107.00 105.15,107.00 105.98,107.00 106.81,107.00 107.65,107.00 108.48,107.00 109.31,107.00 110.14,107.00 110.97,107.00 111.81,107.00 112.64,107.00 113.47,107.00 114.30,107.00 115.13,107.00 115.97,107.00 116.80,107.00 117.63,107.00 118.46,107.00 119.29,107.00 120.13,107.00 120.96,107.00 121.79,107.00 122.62,107.00 123.45,107.00 124.29,89.00 125.12,89.00 125.95,89.00 126.78,89.00 127.61,89.00 128.45,89.00 129.28,89.00 130.11,89.00 130.94,89.00 131.77,89.00 132.61,89.00 133.44,89.00 134.27,89.00 135.10,89.00 135.93,89.00 136.77,89.00 137.60,89.00 138.43,89.00 139.26,89.00 140.09,89.00 140.93,89.00 141.76,89.00 142.59,89.00 143.42,89.00 144.25,89.00 145.09,89.00 145.92,89.00 146.75,89.00 147.58,89.00 148.41,89.00 149.25,89.00 150.08,89.00 150.91,89.00 151.74,89.00 152.57,89.00 153.41,89.00 154.24,89.00 155.07,89.00 155.90,89.00 156.73,89.00 157.57,89.00 158.40,89.00 159.23,89.00 160.06,89.00 160.89,89.00 161.73,89.00 162.56,89.00 163.39,89.00 164.22,89.00 165.05,89.00 165.89,89.00 166.72,89.00 167.55,89.00 168.38,89.00 169.21,89.00 170.05,71.00 170.88,71.00 171.71,71.00 172.54,71.00 173.37,71.00 174.21,71.00 175.04,71.00 175.87,71.00 176.70,71.00 177.53,71.00 178.37,71.00 179.20,71.00 180.03,71.00 180.86,71.00 181.69,71.00 182.53,71.00 183.36,71.00 184.19,71.00 185.02,71.00 185.85,71.00 186.69,71.00 187.52,71.00 188.35,71.00 189.18,71.00 190.01,71.00 190.85,71.00 191.68,71.00 192.51,71.00 193.34,71.00 194.17,71.00 195.01,71.00 195.84,71.00 196.67,71.00 197.50,71.00 198.33,71.00 199.17,71.00 200.00,71.00 200.83,71.00 201.66,71.00 202.49,71.00 203.33,71.00 204.16,71.00 204.99,71.00 205.82,71.00 206.65,71.00 207.49,71.00 208.32,71.00 209.15,71.00 209.98,71.00 210.81,71.00 211.65,71.00 212.48,71.00 213.31,71.00 214.14,71.00 214.97,71.00 215.81,71.00 216.64,71.00 217.47,71.00 218.30,71.00 219.13,71.00 219.97,71.00 220.80,71.00 221.63,71.00 222.46,71.00 223.29,53.00 224.13,53.00 224.96,53.00 225.79,53.00 226.62,53.00 227.45,53.00 228.29,53.00 229.12,53.00 229.95,53.00 230.78,53.00 231.61,53.00 232.45,53.00 233.28,53.00 234.11,53.00 234.94,53.00 235.77,53.00 236.61,53.00 237.44,53.00 238.27,53.00 239.10,53.00 239.93,53.00 240.77,53.00 241.60,53.00 242.43,53.00 243.26,53.00 244.09,53.00 244.93,53.00 245.76,53.00 246.59,53.00 247.42,53.00 248.25,53.00 249.09,53.00 249.92,53.00 250.75,53.00 251.58,53.00 252.41,53.00 253.25,53.00 254.08,53.00 254.91,53.00 255.74,53.00 256.57,53.00 257.41,53.00 258.24,53.00 259.07,53.00 259.90,53.00 260.73,53.00 261.57,53.00 262.40,53.00 263.23,53.00 264.06,53.00 264.89,53.00 265.73,53.00 266.56,53.00 267.39,53.00 268.22,53.00 269.05,53.00 269.89,53.00 270.72,53.00 271.55,53.00 272.38,53.00 273.21,53.00 274.05,53.00 274.88,53.00 275.71,53.00 276.54,53.00 277.37,53.00 278.21,53.00 279.04,53.00 279.87,53.00 280.70,53.00 281.53,53.00 282.37,53.00 283.20,53.00 284.03,53.00 284.86,35.00 285.69,35.00 286.53,35.00 287.36,35.00 288.19,35.00 289.02,35.00 289.85,35.00 290.69,35.00 291.52,35.00 292.35,35.00 293.18,35.00 294.01,35.00 294.85,35.00 295.68,35.00 296.51,35.00 297.34,35.00 298.17,35.00 299.01,35.00 299.84,35.00 300.67,35.00 301.50,35.00 302.33,35.00 303.17,35.00 304.00,35.00 304.83,35.00 305.66,35.00 306.49,35.00 307.33,35.00 308.16,35.00 308.99,35.00 309.82,35.00 310.65,35.00 311.49,35.00 312.32,35.00 313.15,35.00 313.98,35.00 314.81,35.00 315.65,35.00 316.48,35.00 317.31,35.00 318.14,35.00 318.97,35.00 319.81,35.00 320.64,35.00 321.47,35.00 322.30,35.00 323.13,35.00 323.97,35.00 324.80,35.00 325.63,35.00 326.46,35.00 327.29,35.00 328.13,35.00 328.96,35.00 329.79,35.00 330.62,35.00 331.45,35.00 332.29,35.00 333.12,35.00 333.95,35.00 334.78,35.00 335.61,35.00 336.45,35.00 337.28,35.00 338.11,35.00 338.94,35.00 339.77,35.00 340.61,35.00 341.44,35.00 342.27,35.00 343.10,35.00 343.93,35.00 344.77,35.00 345.60,35.00 346.43,35.00 347.26,35.00 348.09,35.00 348.93,35.00 349.76,35.00 350.59,35.00 351.42,35.00 352.25,35.00 353.09,35.00 353.92,35.00 354.75,17.00 355.58,17.00 356.41,17.00 357.25,17.00 358.08,17.00 358.91,17.00 359.74,17.00 360.57,17.00 361.41,17.00 362.24,17.00 363.07,17.00 363.90,17.00 364.73,17.00 365.57,17.00 366.40,17.00 367.23,17.00 368.06,17.00 368.89,17.00 369.73,17.00 370.56,17.00 371.39,17.00 372.22,17.00 373.05,17.00 373.89,17.00 374.72,17.00 375.55,17.00 376.38,17.00 377.21,17.00 378.05,17.00 378.88,17.00 379.71,17.00 380.54,17.00 381.37,17.00 382.21,17.00 383.04,17.00 383.87,17.00 384.70,17.00 385.53,17.00 386.37,17.00 387.20,17.00 388.03,17.00 388.86,17.00 389.69,17.00 390.53,17.00 391.36,17.00 392.19,17.00 393.02,17.00 393.85,17.00 394.69,17.00 395.52,17.00 396.35,17.00 397.18,17.00 398.01,17.00 398.85,17.00 399.68,17.00 400.51,17.00 401.34,17.00 402.17,17.00 403.01,17.00 403.84,17.00 404.67,17.00 405.50,17.00 406.33,17.00 407.17,17.00 408.00,17.00 408.83,17.00 409.66,17.00 410.49,17.00 411.33,17.00 412.16,17.00 412.99,17.00 413.82,17.00 414.65,17.00 415.49,17.00 416.32,17.00 417.15,17.00 417.98,17.00 418.81,17.00 419.65,17.00 420.48,17.00 421.31,17.00 422.14,17.00 422.97,17.00 423.81,17.00 424.64,17.00 425.47,17.00 426.30,17.00 427.13,17.00 427.97,17.00 428.80,17.00 429.63,17.00 430.46,17.00 431.29,17.00 432.13,17.00 432.96,17.00 "></path><path id="asvg1SVG-plot-1038" stroke="#cc00cc" stroke-width="1.5" stroke-opacity="1" fill="none" fill-opacity="1" vector-effect="non-scaling-stroke" d="M17.00,187.27 17.83,191.38 18.66,198.92 19.50,211.82 21.12,213.82 21.12,213.82 21.95,192.75 22.78,211.15 23.61,198.43 24.45,191.11 25.28,187.13 26.11,184.79 26.94,183.32 27.77,182.34 28.61,181.66 29.44,181.16 30.27,180.79 31.10,180.51 31.93,180.29 32.77,180.11 33.60,179.97 34.43,179.85 35.26,179.76 36.09,179.68 36.93,179.61 37.76,179.55 38.59,179.50 39.42,179.45 40.25,179.42 41.09,179.38 41.92,179.35 42.75,179.33 43.58,179.30 44.41,179.28 45.25,179.26 46.08,179.24 46.91,179.23 47.74,179.21 48.57,179.20 49.41,179.19 50.24,179.18 51.07,179.17 51.90,179.16 52.73,179.15 53.57,179.14 54.40,179.14 55.23,179.13 56.06,179.12 56.89,179.12 57.73,179.11 58.56,179.11 59.39,179.10 60.22,179.10 61.05,179.10 61.89,179.09 62.72,179.09 63.55,179.08 64.38,179.08 65.21,179.08 66.05,179.08 66.88,179.07 67.71,179.07 68.54,179.07 69.37,179.07 70.21,179.06 71.04,179.06 71.87,179.06 72.70,179.06 73.53,179.06 74.37,179.05 75.20,179.05 76.03,179.05 76.86,179.05 77.69,179.05 78.53,179.05 79.36,179.04 80.19,179.04 81.02,179.04 81.85,179.04 82.69,179.04 83.52,179.04 84.35,179.04 85.18,179.04 86.01,179.04 86.85,179.04 87.68,179.03 88.51,179.03 89.34,179.03 90.17,179.03 91.01,179.03 91.84,179.03 92.67,179.03 93.50,179.03 94.33,179.03 95.17,179.03 96.00,179.03 96.83,179.03 97.66,179.03 98.49,179.03 99.33,179.02 100.16,179.02 100.99,179.02 101.82,179.02 102.65,179.02 103.49,179.02 104.32,179.02 105.15,179.02 105.98,179.02 106.81,179.02 107.65,179.02 108.48,179.02 109.31,179.02 110.14,179.02 110.97,179.02 111.81,179.02 112.64,179.02 113.47,179.02 114.30,179.02 115.13,179.02 115.97,179.02 116.80,179.02 117.63,179.02 118.46,179.02 119.29,179.02 120.13,179.02 120.96,179.02 121.79,179.02 122.62,179.01 123.45,179.01 124.29,179.01 125.12,179.01 125.95,179.01 126.78,179.01 127.61,179.01 128.45,179.01 129.28,179.01 130.11,179.01 130.94,179.01 131.77,179.01 132.61,179.01 133.44,179.01 134.27,179.01 135.10,179.01 135.93,179.01 136.77,179.01 137.60,179.01 138.43,179.01 139.26,179.01 140.09,179.01 140.93,179.01 141.76,179.01 142.59,179.01 143.42,179.01 144.25,179.01 145.09,179.01 145.92,179.01 146.75,179.01 147.58,179.01 148.41,179.01 149.25,179.01 150.08,179.01 150.91,179.01 151.74,179.01 152.57,179.01 153.41,179.01 154.24,179.01 155.07,179.01 155.90,179.01 156.73,179.01 157.57,179.01 158.40,179.01 159.23,179.01 160.06,179.01 160.89,179.01 161.73,179.01 162.56,179.01 163.39,179.01 164.22,179.01 165.05,179.01 165.89,179.01 166.72,179.01 167.55,179.01 168.38,179.01 169.21,179.01 170.05,179.01 170.88,179.01 171.71,179.01 172.54,179.01 173.37,179.01 174.21,179.01 175.04,179.01 175.87,179.01 176.70,179.01 177.53,179.01 178.37,179.01 179.20,179.01 180.03,179.01 180.86,179.01 181.69,179.01 182.53,179.01 183.36,179.01 184.19,179.01 185.02,179.01 185.85,179.01 186.69,179.01 187.52,179.01 188.35,179.01 189.18,179.01 190.01,179.01 190.85,179.01 191.68,179.01 192.51,179.01 193.34,179.01 194.17,179.01 195.01,179.01 195.84,179.01 196.67,179.00 197.50,179.00 198.33,179.00 199.17,179.00 200.00,179.00 200.83,179.00 201.66,179.00 202.49,179.00 203.33,179.00 204.16,179.00 204.99,179.00 205.82,179.00 206.65,179.00 207.49,179.00 208.32,179.00 209.15,179.00 209.98,179.00 210.81,179.00 211.65,179.00 212.48,179.00 213.31,179.00 214.14,179.00 214.97,179.00 215.81,179.00 216.64,179.00 217.47,179.00 218.30,179.00 219.13,179.00 219.97,179.00 220.80,179.00 221.63,179.00 222.46,179.00 223.29,179.00 224.13,179.00 224.96,179.00 225.79,179.00 226.62,179.00 227.45,179.00 228.29,179.00 229.12,179.00 229.95,179.00 230.78,179.00 231.61,179.00 232.45,179.00 233.28,179.00 234.11,179.00 234.94,179.00 235.77,179.00 236.61,179.00 237.44,179.00 238.27,179.00 239.10,179.00 239.93,179.00 240.77,179.00 241.60,179.00 242.43,179.00 243.26,179.00 244.09,179.00 244.93,179.00 245.76,179.00 246.59,179.00 247.42,179.00 248.25,179.00 249.09,179.00 249.92,179.00 250.75,179.00 251.58,179.00 252.41,179.00 253.25,179.00 254.08,179.00 254.91,179.00 255.74,179.00 256.57,179.00 257.41,179.00 258.24,179.00 259.07,179.00 259.90,179.00 260.73,179.00 261.57,179.00 262.40,179.00 263.23,179.00 264.06,179.00 264.89,179.00 265.73,179.00 266.56,179.00 267.39,179.00 268.22,179.00 269.05,179.00 269.89,179.00 270.72,179.00 271.55,179.00 272.38,179.00 273.21,179.00 274.05,179.00 274.88,179.00 275.71,179.00 276.54,179.00 277.37,179.00 278.21,179.00 279.04,179.00 279.87,179.00 280.70,179.00 281.53,179.00 282.37,179.00 283.20,179.00 284.03,179.00 284.86,179.00 285.69,179.00 286.53,179.00 287.36,179.00 288.19,179.00 289.02,179.00 289.85,179.00 290.69,179.00 291.52,179.00 292.35,179.00 293.18,179.00 294.01,179.00 294.85,179.00 295.68,179.00 296.51,179.00 297.34,179.00 298.17,179.00 299.01,179.00 299.84,179.00 300.67,179.00 301.50,179.00 302.33,179.00 303.17,179.00 304.00,179.00 304.83,179.00 305.66,179.00 306.49,179.00 307.33,179.00 308.16,179.00 308.99,179.00 309.82,179.00 310.65,179.00 311.49,179.00 312.32,179.00 313.15,179.00 313.98,179.00 314.81,179.00 315.65,179.00 316.48,179.00 317.31,179.00 318.14,179.00 318.97,179.00 319.81,179.00 320.64,179.00 321.47,179.00 322.30,179.00 323.13,179.00 323.97,179.00 324.80,179.00 325.63,179.00 326.46,179.00 327.29,179.00 328.13,179.00 328.96,179.00 329.79,179.00 330.62,179.00 331.45,179.00 332.29,179.00 333.12,179.00 333.95,179.00 334.78,179.00 335.61,179.00 336.45,179.00 337.28,179.00 338.11,179.00 338.94,179.00 339.77,179.00 340.61,179.00 341.44,179.00 342.27,179.00 343.10,179.00 343.93,179.00 344.77,179.00 345.60,179.00 346.43,179.00 347.26,179.00 348.09,179.00 348.93,179.00 349.76,179.00 350.59,179.00 351.42,179.00 352.25,179.00 353.09,179.00 353.92,179.00 354.75,179.00 355.58,179.00 356.41,179.00 357.25,179.00 358.08,179.00 358.91,179.00 359.74,179.00 360.57,179.00 361.41,179.00 362.24,179.00 363.07,179.00 363.90,179.00 364.73,179.00 365.57,179.00 366.40,179.00 367.23,179.00 368.06,179.00 368.89,179.00 369.73,179.00 370.56,179.00 371.39,179.00 372.22,179.00 373.05,179.00 373.89,179.00 374.72,179.00 375.55,179.00 376.38,179.00 377.21,179.00 378.05,179.00 378.88,179.00 379.71,179.00 380.54,179.00 381.37,179.00 382.21,179.00 383.04,179.00 383.87,179.00 384.70,179.00 385.53,179.00 386.37,179.00 387.20,179.00 388.03,179.00 388.86,179.00 389.69,179.00 390.53,179.00 391.36,179.00 392.19,179.00 393.02,179.00 393.85,179.00 394.69,179.00 395.52,179.00 396.35,179.00 397.18,179.00 398.01,179.00 398.85,179.00 399.68,179.00 400.51,179.00 401.34,179.00 402.17,179.00 403.01,179.00 403.84,179.00 404.67,179.00 405.50,179.00 406.33,179.00 407.17,179.00 408.00,179.00 408.83,179.00 409.66,179.00 410.49,179.00 411.33,179.00 412.16,179.00 412.99,179.00 413.82,179.00 414.65,179.00 415.49,179.00 416.32,179.00 417.15,179.00 417.98,179.00 418.81,179.00 419.65,179.00 420.48,179.00 421.31,179.00 422.14,179.00 422.97,179.00 423.81,179.00 424.64,179.00 425.47,179.00 426.30,179.00 427.13,179.00 427.97,179.00 428.80,179.00 429.63,179.00 430.46,179.00 431.29,179.00 432.13,179.00 432.96,179.00 "></path></svg>
